<svg xmlns="http://www.w3.org/2000/svg" width="600" height="300" viewBox="0 0 600 300">
<style>text{font-family:ui-monospace,"JetBrains Mono",Menlo,Consolas,monospace;fill:#71717a;font-size:15px}.fb{transform-box:fill-box}@keyframes p0{0%,25%{opacity:1}29.17%,95.83%{opacity:0}100%{opacity:1}}.p0{animation:p0 9s infinite cubic-bezier(.65,0,.35,1)}@keyframes p1{0%,29.17%{opacity:0}33.33%,58.33%{opacity:1}62.5%,100%{opacity:0}}.p1{animation:p1 9s infinite cubic-bezier(.65,0,.35,1)}@keyframes p2{0%,62.5%{opacity:0}66.67%,91.67%{opacity:1}95.83%,100%{opacity:0}}.p2{animation:p2 9s infinite cubic-bezier(.65,0,.35,1)}@media (prefers-reduced-motion:reduce){*{animation:none!important}}</style>
<rect width="600" height="300" rx="10" fill="#09090b"/><rect x=".5" y=".5" width="599" height="299" rx="10" fill="none" stroke="#27272a"/>
<text x="32" y="36">loss on the new text, pass by pass</text><line x1="60" y1="250" x2="568" y2="250" stroke="#3f3f46"/><g class="p0"><polyline points="60,106 68.5,111.5 76.9,116.9 85.4,122.3 93.9,127.6 102.3,132.6 110.8,137.2 119.3,141.1 127.7,144.5 136.2,147.4 144.7,149.9 153.1,152.1 161.6,154.2 170.1,156 178.5,157.7 187,159.3 195.5,160.9 203.9,162.3 212.4,163.7 220.9,165 229.3,166.3 237.8,167.5 246.3,168.6 254.7,169.7 263.2,170.8 271.7,171.8 280.1,172.8 288.6,173.8 297.1,174.7 305.5,175.6 314,176.4 322.5,177.3 330.9,178.1 339.4,178.9 347.9,179.6 356.3,180.4 364.8,181.1 373.3,181.8 381.7,182.4 390.2,183.1 398.7,183.7 407.1,184.4 415.6,185 424.1,185.6 432.5,186.2 441,186.7 449.5,187.3 457.9,187.8 466.4,188.4 474.9,188.9 483.3,189.4 491.8,189.9 500.3,190.4 508.7,190.9 517.2,191.4 525.7,191.8 534.1,192.3 542.6,192.7 551.1,193.2 559.5,193.6 568,194" fill="none" stroke="#fafafa" stroke-width="3"/><text x="568" y="36" text-anchor="end" style="font-size:20px;fill:#fafafa">learning_rate 0.005</text><text x="568" y="60" text-anchor="end">too small</text></g><g class="p1" opacity="0"><polyline points="60,106 68.5,167.5 76.9,183.5 85.4,193 93.9,200.2 102.3,205.8 110.8,210 119.3,213.4 127.7,216.1 136.2,218.5 144.7,220.6 153.1,222.3 161.6,223.8 170.1,225 178.5,226 187,226.9 195.5,227.6 203.9,228.2 212.4,228.7 220.9,229.1 229.3,229.5 237.8,229.8 246.3,230 254.7,230.3 263.2,230.5 271.7,230.7 280.1,230.8 288.6,231 297.1,231.1 305.5,231.2 314,231.3 322.5,231.4 330.9,231.5 339.4,231.6 347.9,231.7 356.3,231.7 364.8,231.8 373.3,231.8 381.7,231.9 390.2,231.9 398.7,232 407.1,232 415.6,232 424.1,232.1 432.5,232.1 441,232.1 449.5,232.2 457.9,232.2 466.4,232.2 474.9,232.2 483.3,232.3 491.8,232.3 500.3,232.3 508.7,232.3 517.2,232.3 525.7,232.4 534.1,232.4 542.6,232.4 551.1,232.4 559.5,232.4 568,232.4" fill="none" stroke="#fafafa" stroke-width="3"/><text x="568" y="36" text-anchor="end" style="font-size:20px;fill:#fafafa">learning_rate 0.1</text><text x="568" y="60" text-anchor="end">about right</text></g><g class="p2" opacity="0"><polyline points="60,106 68.5,70 76.9,70 85.4,70 93.9,100.8 102.3,70 110.8,70 119.3,70 127.7,92 136.2,79 144.7,70 153.1,71.5 161.6,104.9 170.1,89.3 178.5,70 187,86.4 195.5,91.5 203.9,113.8 212.4,113.9 220.9,110.1 229.3,70.7 237.8,109.6 246.3,100.7 254.7,109.2 263.2,127 271.7,154.8 280.1,119.3 288.6,112.9 297.1,114.6 305.5,113 314,120.6 322.5,123.3 330.9,123.8 339.4,124.1 347.9,124.4 356.3,124.7 364.8,124.1 373.3,121.7 381.7,114.2 390.2,113.4 398.7,119.2 407.1,123.3 415.6,117.5 424.1,130.2 432.5,121.2 441,128.7 449.5,138.4 457.9,132.4 466.4,104.8 474.9,109.9 483.3,138.2 491.8,136.5 500.3,113.9 508.7,135.8 517.2,137.1 525.7,131.7 534.1,136.8 542.6,131 551.1,137.7 559.5,134.1 568,130.8" fill="none" stroke="#fafafa" stroke-width="3"/><text x="568" y="36" text-anchor="end" style="font-size:20px;fill:#fafafa">learning_rate 1</text><text x="568" y="60" text-anchor="end">too big</text></g><text x="60" y="276">passes over the new text</text>
</svg>
