<svg xmlns="http://www.w3.org/2000/svg" width="600" height="300" viewBox="0 0 600 300">
<style>text{font-family:ui-monospace,"JetBrains Mono",Menlo,Consolas,monospace;fill:#71717a;font-size:15px}.fb{transform-box:fill-box}@keyframes snap{0%,20%{transform:translateY(0)}40%,75%{transform:translateY(var(--d))}95%,100%{transform:translateY(0)}}@keyframes lv{0%,20%{opacity:.25}40%,75%{opacity:1}95%,100%{opacity:.25}}.lv{animation:lv 6s infinite ease-in-out}.d{animation:snap 6s infinite cubic-bezier(.5,0,.3,1)}@media (prefers-reduced-motion:reduce){*{animation:none!important}}</style>
<rect width="600" height="300" rx="10" fill="#09090b"/><rect x=".5" y=".5" width="599" height="299" rx="10" fill="none" stroke="#27272a"/>
<text x="32" y="42">16 bits → 2 bits: each number snaps to 1 of 4 values</text><line class="lv" x1="40" x2="560" y1="210" y2="210" stroke="#a1a1aa" stroke-dasharray="3 5"/><line class="lv" x1="40" x2="560" y1="170" y2="170" stroke="#a1a1aa" stroke-dasharray="3 5"/><line class="lv" x1="40" x2="560" y1="130" y2="130" stroke="#a1a1aa" stroke-dasharray="3 5"/><line class="lv" x1="40" x2="560" y1="90" y2="90" stroke="#a1a1aa" stroke-dasharray="3 5"/><circle class="d" style="--d:-5.5px" cx="52" cy="175.5" r="4" fill="#fafafa"/><circle class="d" style="--d:17.6px" cx="64.6" cy="152.4" r="4" fill="#fafafa"/><circle class="d" style="--d:9.6px" cx="77.2" cy="120.4" r="4" fill="#fafafa"/><circle class="d" style="--d:12px" cx="89.8" cy="118" r="4" fill="#fafafa"/><circle class="d" style="--d:14.1px" cx="102.4" cy="155.9" r="4" fill="#fafafa"/><circle class="d" style="--d:16.5px" cx="115" cy="153.5" r="4" fill="#fafafa"/><circle class="d" style="--d:-9.5px" cx="127.6" cy="99.5" r="4" fill="#fafafa"/><circle class="d" style="--d:15px" cx="140.2" cy="155" r="4" fill="#fafafa"/><circle class="d" style="--d:6.5px" cx="152.8" cy="83.5" r="4" fill="#fafafa"/><circle class="d" style="--d:18.4px" cx="165.4" cy="71.6" r="4" fill="#fafafa"/><circle class="d" style="--d:-16.1px" cx="178" cy="146.1" r="4" fill="#fafafa"/><circle class="d" style="--d:-3.1px" cx="190.6" cy="213.1" r="4" fill="#fafafa"/><circle class="d" style="--d:-5.9px" cx="203.2" cy="135.9" r="4" fill="#fafafa"/><circle class="d" style="--d:-1.5px" cx="215.8" cy="91.5" r="4" fill="#fafafa"/><circle class="d" style="--d:6.6px" cx="228.4" cy="203.4" r="4" fill="#fafafa"/><circle class="d" style="--d:-13.2px" cx="241" cy="183.2" r="4" fill="#fafafa"/><circle class="d" style="--d:5px" cx="253.6" cy="165" r="4" fill="#fafafa"/><circle class="d" style="--d:18.1px" cx="266.2" cy="111.9" r="4" fill="#fafafa"/><circle class="d" style="--d:-16.4px" cx="278.8" cy="186.4" r="4" fill="#fafafa"/><circle class="d" style="--d:-17.7px" cx="291.4" cy="187.7" r="4" fill="#fafafa"/><circle class="d" style="--d:18.1px" cx="304" cy="151.9" r="4" fill="#fafafa"/><circle class="d" style="--d:-11.4px" cx="316.6" cy="141.4" r="4" fill="#fafafa"/><circle class="d" style="--d:-4.3px" cx="329.2" cy="94.3" r="4" fill="#fafafa"/><circle class="d" style="--d:-1.5px" cx="341.8" cy="131.5" r="4" fill="#fafafa"/><circle class="d" style="--d:-12.1px" cx="354.4" cy="102.1" r="4" fill="#fafafa"/><circle class="d" style="--d:-7.4px" cx="367" cy="177.4" r="4" fill="#fafafa"/><circle class="d" style="--d:-18.5px" cx="379.6" cy="148.5" r="4" fill="#fafafa"/><circle class="d" style="--d:7.1px" cx="392.2" cy="122.9" r="4" fill="#fafafa"/><circle class="d" style="--d:-15.8px" cx="404.8" cy="225.8" r="4" fill="#fafafa"/><circle class="d" style="--d:1.9px" cx="417.4" cy="168.1" r="4" fill="#fafafa"/><circle class="d" style="--d:-3.4px" cx="430" cy="173.4" r="4" fill="#fafafa"/><circle class="d" style="--d:-6.6px" cx="442.6" cy="136.6" r="4" fill="#fafafa"/><circle class="d" style="--d:18.4px" cx="455.2" cy="71.6" r="4" fill="#fafafa"/><circle class="d" style="--d:19.1px" cx="467.8" cy="110.9" r="4" fill="#fafafa"/><circle class="d" style="--d:-18.4px" cx="480.4" cy="228.4" r="4" fill="#fafafa"/><circle class="d" style="--d:2.8px" cx="493" cy="207.2" r="4" fill="#fafafa"/><circle class="d" style="--d:16.8px" cx="505.6" cy="113.2" r="4" fill="#fafafa"/><circle class="d" style="--d:7.3px" cx="518.2" cy="162.7" r="4" fill="#fafafa"/><circle class="d" style="--d:10px" cx="530.8" cy="160" r="4" fill="#fafafa"/><circle class="d" style="--d:11.7px" cx="543.4" cy="158.3" r="4" fill="#fafafa"/><text x="32" y="276">8x smaller, and you can see the rounding</text>
</svg>
